HIERARCHY
ROOT hip
{
	OFFSET 0.000000 0.000000 0.000000 
	CHANNELS 6 Xposition Yposition Zposition Zrotation Xrotation Yrotation
	JOINT abdomen
	{
		OFFSET 0.000000 3.402643 0.000000 
		CHANNELS 3 Zrotation Xrotation Yrotation
		JOINT chest
		{
			OFFSET 0.000000 8.438565 -0.680529 
			CHANNELS 3 Zrotation Xrotation Yrotation
			JOINT neck
			{
				OFFSET 0.000000 10.207942 -0.272212 
				CHANNELS 3 Zrotation Xrotation Yrotation
				JOINT head
				{
					OFFSET 0.000000 3.130431 0.000000 
					CHANNELS 3 Zrotation Xrotation Yrotation
					End Site
					{
						OFFSET 0.000000 3.130435 0.000000 
					}
				}
			}
			JOINT lCollar
			{
				OFFSET 3.470700 6.669187 -0.816635 
				CHANNELS 3 Zrotation Xrotation Yrotation
				JOINT lShldr
				{
					OFFSET 3.198488 0.000000 0.000000 
					CHANNELS 3 Zrotation Xrotation Yrotation
					JOINT lForeArm
					{
						OFFSET 10.139888 0.000000 0.000000 
						CHANNELS 3 Zrotation Xrotation Yrotation
						JOINT lHand
						{
							OFFSET 8.370511 0.000000 0.000000 
							CHANNELS 3 Zrotation Xrotation Yrotation
							End Site
							{
								OFFSET 4.083176 0.000000 0.000000 
							}
						}
					}
				}
			}
			JOINT rCollar
			{
				OFFSET -3.470700 6.669187 -0.816635 
				CHANNELS 3 Zrotation Xrotation Yrotation
				JOINT rShldr
				{
					OFFSET -3.198488 0.000000 0.000000 
					CHANNELS 3 Zrotation Xrotation Yrotation
					JOINT rForeArm
					{
						OFFSET -10.139888 0.000000 0.000000 
						CHANNELS 3 Zrotation Xrotation Yrotation
						JOINT rHand
						{
							OFFSET -8.370511 0.000000 0.000000 
							CHANNELS 3 Zrotation Xrotation Yrotation
							End Site
							{
								OFFSET -4.083176 0.000000 0.000000 
							}
						}
					}
				}
			}
		}
	}
	JOINT lThigh
	{
		OFFSET 5.308129 -1.633274 1.361059 
		CHANNELS 3 Zrotation Xrotation Yrotation
		JOINT lShin
		{
			OFFSET -2.041588 -20.007561 0.000000 
			CHANNELS 3 Zrotation Xrotation Yrotation
			JOINT lFoot
			{
				OFFSET 0.000000 -19.190928 -1.224953 
				CHANNELS 3 Zrotation Xrotation Yrotation
				End Site
				{
					OFFSET 0.000000 -2.449906 4.627600 
				}
			}
		}
	}
	JOINT rThigh
	{
		OFFSET -5.308129 -1.633274 1.361059 
		CHANNELS 3 Zrotation Xrotation Yrotation
		JOINT rShin
		{
			OFFSET 2.041588 -20.007561 0.000000 
			CHANNELS 3 Zrotation Xrotation Yrotation
			JOINT rFoot
			{
				OFFSET 0.000000 -19.190928 -1.224953 
				CHANNELS 3 Zrotation Xrotation Yrotation
				End Site
				{
					OFFSET 0.000000 -2.449906 4.627600 
				}
			}
		}
	}
}
MOTION
Frames: 14
Frame Time: 0.033333
-0.154692 49.111088 -1.498155 -6.240729 4.582181 -2.595169 -0.000000 -0.000002 -0.000000 1.514779 -14.750925 1.509071 -2.487948 -13.230152 2.252527 -0.954937 -15.993991 -0.145955 -2.000757 -0.069240 1.990978 -56.070580 -8.413157 -115.937538 4.671268 8.584947 -54.081421 -14.791613 -54.345238 63.634403 1.990970 -0.069577 -2.000746 75.756653 3.944955 0.783107 -14.464088 2.457923 82.605080 24.577353 -9.530673 3.753057 20.574226 -17.469961 14.970837 -8.593610 41.318760 4.015492 -3.252101 -24.373917 -5.329871 -0.687799 -6.466587 1.694491 8.311387 22.672247 0.353061 -6.440832 -25.927383 -12.753814 
-0.110515 49.112335 -1.557582 -6.557077 4.880132 -1.931096 -0.000000 -0.000002 -0.000000 2.461160 -12.547378 3.474855 -4.097755 -16.161924 1.542458 -0.954937 -15.993991 -0.145955 -2.000757 -0.069240 1.990978 -54.344051 -9.055820 -112.154846 4.633178 8.621555 -53.679623 -0.866810 -48.052860 70.755775 1.990970 -0.069577 -2.000746 75.006783 4.886637 5.861222 -14.299376 3.385502 78.997307 21.097752 -7.748145 3.646633 20.769909 -18.542315 15.208696 -8.703966 41.621223 4.100473 -2.824733 -24.028028 -5.805253 -0.570652 -7.166941 1.751523 8.299227 22.530132 0.371452 -6.365583 -25.424944 -13.432931 
-0.064786 49.160561 -1.619076 -6.743289 4.878270 -0.050057 -0.000000 -0.000002 -0.000000 3.007535 -13.058776 8.327133 -6.365665 -15.183635 1.324375 -0.954937 -15.993991 -0.145955 -2.000757 -0.069240 1.990978 -52.957233 -6.256707 -108.052963 4.534117 8.736238 -52.199524 16.339102 -31.646339 69.164146 1.990970 -0.069577 -2.000746 72.469826 -0.145492 18.242247 -13.913735 4.871556 73.153114 12.722491 -3.449230 3.854661 20.682003 -19.054419 15.355955 -8.606340 41.208157 4.064194 -2.538867 -23.583815 -7.563413 -0.334492 -6.811996 1.729383 8.063111 21.913292 0.452842 -6.536305 -25.195009 -15.346429 
-0.017642 49.236820 -1.682490 -6.720302 4.529335 3.374927 -0.000000 -0.000002 -0.000000 3.616002 -15.380928 15.540355 -8.882830 -10.239706 3.768407 -0.954937 -15.993991 -0.145955 -2.000757 -0.069240 1.990978 -57.155338 -0.193743 -105.760544 4.798237 8.397131 -56.272629 24.169464 -19.338461 59.908100 1.990970 -0.069577 -2.000746 68.907394 -10.149353 36.550522 -13.169455 6.757634 65.370766 0.280636 2.771370 5.289419 20.162539 -19.384176 15.456177 -8.525657 40.860962 3.998920 -2.180743 -23.034922 -10.863789 -0.146959 -5.679874 1.620622 7.695008 21.153072 0.630333 -7.114883 -25.206558 -18.881634 
0.030676 49.324245 -1.747490 -6.530410 4.094440 7.274936 -0.000000 -0.000002 -0.000000 4.374596 -17.997692 22.702404 -10.387260 -3.179559 8.380580 -0.954937 -15.993991 -0.145955 -2.000757 -0.069240 1.990978 -74.531471 5.890450 -104.719406 5.676655 6.651011 -74.800255 17.489897 -15.246160 44.906021 1.990970 -0.069577 -2.000746 65.770325 -21.923529 55.857830 -12.079589 8.656518 56.943230 -13.726170 9.063378 8.406485 19.309935 -19.624422 15.494921 -8.400713 40.391079 3.902849 -1.762199 -22.239933 -14.617199 -0.029681 -4.389439 1.531984 7.252408 20.222202 0.794836 -7.750177 -25.130896 -22.931225 
0.080031 49.405064 -1.813859 -6.215425 3.873629 10.616850 -0.000000 -0.000002 -0.000000 4.715729 -19.548035 27.157970 -10.737134 3.828467 14.182421 -0.954937 -15.993991 -0.145955 -2.000757 -0.069240 1.990978 -98.260887 8.549888 -101.206657 5.901577 4.143432 -98.731621 4.176441 -10.203237 28.159737 1.990970 -0.069577 -2.000746 64.439011 -31.440231 72.553780 -10.856703 10.210874 49.232430 -26.612085 13.833247 12.436561 18.392145 -19.883797 15.501122 -8.234681 39.600697 3.848102 -1.375541 -21.426233 -17.822578 0.019626 -3.558707 1.440412 6.896784 19.521313 0.938590 -8.359239 -24.922466 -26.444115 
0.130179 49.464809 -1.881318 -5.894037 4.099384 12.346656 -0.000000 -0.000002 -0.000000 3.844576 -18.642508 26.172028 -10.502017 8.663290 20.095526 -0.954937 -15.993991 -0.145955 -2.000757 -0.069240 1.990978 -110.462898 6.525072 -96.773422 5.723975 3.166449 -107.991425 -6.038248 -2.214860 22.234299 1.990970 -0.069577 -2.000746 65.581787 -34.768291 82.821007 -9.833220 11.224972 43.621559 -35.091141 16.345472 15.576199 17.684368 -20.344507 15.533817 -7.960674 38.546822 3.671077 -1.251862 -20.282621 -19.373255 -0.087872 -3.749714 1.475218 6.789580 19.194036 0.985689 -8.831567 -24.511095 -28.370766 
0.180985 49.442657 -1.949653 -5.529464 5.064314 12.158601 -0.000000 -0.000002 -0.000000 0.817623 -11.649236 12.743366 -10.236483 10.344193 28.966614 -0.954937 -15.993991 -0.145955 -2.000757 -0.069240 1.990978 -102.193031 -2.764879 -95.889236 5.957783 4.992897 -90.706200 -12.815889 5.856401 34.275845 1.990970 -0.069577 -2.000746 70.912369 -26.887714 92.223259 -9.151910 11.821944 40.116219 -39.356426 17.397543 17.278368 17.438063 -21.784447 15.712556 -7.586776 37.201080 3.444182 -1.513544 -18.292295 -18.990303 -0.323804 -6.056942 1.719298 7.222145 19.838686 0.771392 -9.495760 -23.668474 -28.507931 
0.232207 49.330322 -2.018551 -5.053060 6.595583 10.786110 -0.000000 -0.000002 -0.000000 -0.107425 0.458987 -9.042129 -12.050110 10.491688 40.485760 -0.954937 -15.993991 -0.145955 -2.000757 -0.069240 1.990978 -86.499069 -21.074078 -90.079025 5.007462 8.106349 -59.656139 -21.396551 11.108745 56.180298 1.990970 -0.069577 -2.000746 74.165802 -10.529349 100.730408 -8.644004 12.207289 37.611065 -42.007240 17.998142 18.359669 16.815832 -24.101435 15.875723 -7.091815 35.167473 3.130595 -1.407351 -15.295178 -16.990492 -1.200195 -10.231303 2.180122 7.902063 21.146591 0.472397 -9.550598 -22.275993 -27.550636 
0.283708 49.227261 -2.087818 -4.470253 8.256391 8.718638 -0.000000 -0.000002 -0.000000 2.717654 10.067027 -27.721481 -15.312932 10.133206 48.412323 -0.954937 -15.993991 -0.145955 -2.000757 -0.069240 1.990978 -71.977509 -36.579796 -72.700516 2.901489 10.096077 -32.023125 -29.428415 12.770617 74.172035 1.990970 -0.069577 -2.000746 71.157784 3.625527 101.827660 -8.277403 12.468125 35.831696 -43.151367 18.234961 18.829967 15.491864 -25.985662 15.677340 -6.668082 33.175465 2.917953 -0.859024 -13.037310 -14.199624 -2.622999 -13.702940 2.549600 8.115108 21.364525 0.372221 -8.502623 -20.750595 -25.699417 
0.335245 49.249683 -2.157130 -3.813665 9.637204 6.459672 -0.000000 -0.000002 -0.000000 3.966211 12.168923 -33.073666 -16.545698 11.715830 48.501007 -0.954937 -15.993991 -0.145955 -2.000757 -0.069240 1.990978 -66.936005 -39.976784 -57.051022 1.970351 10.523182 -22.312290 -34.444954 14.547942 76.913742 1.990970 -0.069577 -2.000746 66.095955 7.941381 90.530701 -7.996603 12.659953 34.515648 -42.897682 18.188763 18.731771 14.518108 -26.491493 15.413483 -6.352874 31.795240 2.793439 -0.819672 -12.427164 -11.620925 -3.600952 -15.177407 2.696055 7.807301 20.522646 0.481769 -7.490446 -19.868093 -23.505735 
0.386655 49.373989 -2.226286 -3.196055 10.296782 4.556234 -0.000000 -0.000002 -0.000000 3.329384 10.695235 -31.360748 -16.038160 15.120428 44.161358 -0.954937 -15.993991 -0.145955 -2.000757 -0.069240 1.990978 -66.640594 -38.714481 -43.592621 1.896007 10.544468 -21.568346 -38.131485 17.822952 72.062103 1.990970 -0.069577 -2.000746 61.952343 9.151466 72.937912 -7.756569 12.818100 33.365700 -41.376907 17.857561 18.097086 14.003304 -26.055208 15.257783 -6.174154 30.928020 2.676874 -1.096899 -12.487911 -9.733796 -4.111817 -15.397863 2.699688 7.485879 19.685450 0.617566 -6.907210 -19.532682 -21.607534 
0.437779 49.577694 -2.295048 -2.736994 10.008312 3.405704 -0.000000 -0.000002 -0.000000 1.988960 7.339381 -26.201452 -14.226515 19.223515 37.262012 -0.954937 -15.993991 -0.145955 -2.000757 -0.069240 1.990978 -67.673370 -35.795982 -30.598064 2.253040 10.417026 -25.216133 -40.266479 22.104694 63.149319 1.990970 -0.069577 -2.000746 59.816177 9.566831 53.555958 -7.476370 12.970394 32.133194 -38.720684 17.248369 17.017487 13.689253 -24.683504 15.143516 -5.988209 30.241911 2.564348 -1.488563 -12.738038 -8.867832 -4.263610 -14.344793 2.641166 7.146308 18.814268 0.733763 -6.594123 -19.457338 -20.325228 
0.488369 49.810135 -2.363103 -2.335135 9.259991 2.514632 -0.000000 -0.000002 -0.000000 0.713856 2.978287 -19.480328 -11.546850 23.032227 28.923819 -0.954937 -15.993991 -0.145955 -2.000757 -0.069240 1.990978 -68.581726 -32.276009 -17.860649 2.806320 10.140652 -30.984468 -40.373997 26.559031 51.631397 1.990970 -0.069577 -2.000746 59.781475 8.785194 36.084080 -7.125434 13.174839 30.522762 -35.091141 16.345472 15.576199 13.348074 -22.751951 15.005877 -5.778559 29.560249 2.447110 -1.876800 -13.140869 -8.320829 -4.333410 -12.657799 2.553491 6.776211 18.027090 0.877702 -6.370843 -19.616550 -19.287844 
